<svg width="16" height="16" viewBox="0 0 16 16" fill="none" xmlns="http://www.w3.org/2000/svg">
<path fill-rule="evenodd" clip-rule="evenodd" d="M12.512 4.42683L9.52797 8.0075L12.4046 11.5822C12.6353 11.8688 12.59 12.2882 12.3033 12.5195C12.18 12.6188 12.032 12.6668 11.8853 12.6668C11.6906 12.6668 11.4973 12.5815 11.3653 12.4182L8.14663 8.41817C7.94797 8.17083 7.95063 7.81683 8.15397 7.5735L11.4873 3.5735C11.7233 3.29017 12.1433 3.25283 12.4266 3.48817C12.7093 3.7235 12.7473 4.14417 12.512 4.42683ZM6.82103 3.57331C7.05637 3.29064 7.47637 3.25264 7.7597 3.48797C8.04237 3.72397 8.08037 4.14397 7.84503 4.42664L4.86103 8.00731L7.7377 11.582C7.96837 11.8686 7.92303 12.2886 7.63637 12.5193C7.51303 12.6186 7.3657 12.6666 7.21837 12.6666C7.0237 12.6666 6.83037 12.582 6.69903 12.418L3.48037 8.41797C3.28103 8.17064 3.28437 7.81731 3.4877 7.57331L6.82103 3.57331Z" fill="#9E9E9E"/>
</svg>
