<svg width="16" height="16" viewBox="0 0 16 16" fill="none" xmlns="http://www.w3.org/2000/svg">
<path fill-rule="evenodd" clip-rule="evenodd" d="M9.30056 3.58196L12.5192 7.58196C12.7186 7.8293 12.7152 8.18263 12.5119 8.42663L9.17856 12.4266C9.04656 12.5846 8.85723 12.6666 8.6659 12.6666C8.5159 12.6666 8.36456 12.616 8.2399 12.512C7.95656 12.2766 7.91856 11.856 8.15456 11.5733L11.1386 7.99263L8.26123 4.41796C8.03056 4.1313 8.0759 3.7113 8.36323 3.48063C8.6499 3.2493 9.06923 3.2953 9.30056 3.58196ZM3.6965 3.48063C3.98316 3.24996 4.4025 3.2953 4.63383 3.58196L7.8525 7.58196C8.05116 7.8293 8.0485 8.18263 7.84516 8.42663L4.51183 12.4266C4.37983 12.5846 4.1905 12.6666 3.99916 12.6666C3.84916 12.6666 3.69783 12.616 3.57316 12.512C3.28983 12.2766 3.25183 11.856 3.48783 11.5733L6.47116 7.99263L3.5945 4.41796C3.36383 4.1313 3.40983 3.7113 3.6965 3.48063Z" fill="#9E9E9E"/>
</svg>
