<svg width="16" height="16" viewBox="0 0 16 16" fill="none" xmlns="http://www.w3.org/2000/svg">
<path fill-rule="evenodd" clip-rule="evenodd" d="M10.0094 1.22005C9.26425 0.820724 8.42463 0.631313 7.58022 0.672048C6.7358 0.712783 5.91831 0.982133 5.21507 1.45133C4.90879 1.65567 4.82616 2.06962 5.03051 2.3759C5.23485 2.68217 5.6488 2.76481 5.95507 2.56046C6.45739 2.22532 7.04131 2.03293 7.64446 2.00383C8.24762 1.97474 8.84734 2.11003 9.37959 2.39526C9.91183 2.68049 10.3566 3.10495 10.6664 3.62329C10.9754 4.14033 11.1385 4.73142 11.1384 5.3337C11.1199 6.52026 11.2693 7.70347 11.582 8.84824C11.679 9.20342 12.0456 9.41269 12.4007 9.31567C12.7559 9.21865 12.9652 8.85207 12.8682 8.4969C12.5884 7.47253 12.4549 6.41372 12.4716 5.35196L12.4717 5.34022C12.473 4.49482 12.2446 3.66497 11.8109 2.93929C11.3772 2.21361 10.7545 1.61937 10.0094 1.22005ZM6.31722 13.4293C6.6357 13.2445 7.04365 13.3529 7.2284 13.6714C7.287 13.7724 7.37112 13.8563 7.47232 13.9146C7.57353 13.9729 7.68827 14.0036 7.80506 14.0036C7.92186 14.0036 8.0366 13.9729 8.13781 13.9146C8.23901 13.8563 8.32313 13.7724 8.38173 13.6714C8.56648 13.3529 8.97443 13.2445 9.29291 13.4293C9.6114 13.614 9.71981 14.022 9.53506 14.3404C9.35925 14.6435 9.10691 14.8951 8.80329 15.07C8.49967 15.2449 8.15544 15.3369 7.80506 15.3369C7.45469 15.3369 7.11046 15.2449 6.80684 15.07C6.50322 14.8951 6.25088 14.6435 6.07507 14.3404C5.89032 14.022 5.99873 13.614 6.31722 13.4293ZM0.862254 1.06306C1.1226 0.80271 1.54471 0.80271 1.80506 1.06306L14.7479 13.3392C15.0082 13.5996 15.0082 14.0217 14.7479 14.282C14.4875 14.5424 14.0654 14.5424 13.8051 14.282L11.364 11.9667C11.2935 11.9921 11.2176 12.0059 11.1384 12.0059H1.80504C1.51127 12.0059 1.25212 11.8136 1.16698 11.5324C1.08276 11.2542 1.18851 10.9539 1.4275 10.7897L1.42941 10.7883C1.43454 10.7845 1.44644 10.7754 1.46419 10.7606C1.49967 10.7311 1.55859 10.6786 1.63358 10.5995C1.7832 10.4415 1.99858 10.1755 2.21978 9.76997C2.66029 8.96237 3.13828 7.5746 3.13838 5.33992L3.57635 4.58017L0.862254 2.00587C0.601905 1.74552 0.601905 1.32341 0.862254 1.06306ZM4.47147 5.42919L9.99954 10.6725H3.23793C3.28865 10.5894 3.33958 10.5014 3.39031 10.4084C3.94283 9.39549 4.45877 7.81061 4.47147 5.42919Z" fill="#959595"/>
</svg>
