<svg width="16" height="16" viewBox="0 0 16 16" fill="none" xmlns="http://www.w3.org/2000/svg">
<path fill-rule="evenodd" clip-rule="evenodd" d="M10.0094 1.22011C9.26425 0.820785 8.42463 0.631374 7.58022 0.672109C6.7358 0.712844 5.91831 0.982194 5.21507 1.45139C4.90879 1.65574 4.82616 2.06968 5.03051 2.37596C5.23485 2.68224 5.6488 2.76487 5.95507 2.56052C6.45739 2.22538 7.04131 2.03299 7.64446 2.00389C8.24762 1.9748 8.84734 2.11009 9.37959 2.39532C9.91183 2.68055 10.3566 3.10501 10.6664 3.62335C10.9754 4.1404 11.1385 4.73148 11.1384 5.33377C11.1199 6.52032 11.2693 7.70353 11.582 8.8483C11.679 9.20348 12.0456 9.41276 12.4007 9.31573C12.7559 9.21871 12.9652 8.85213 12.8682 8.49696C12.5884 7.47259 12.4549 6.41379 12.4716 5.35203L12.4717 5.34028C12.473 4.49488 12.2446 3.66503 11.8109 2.93935C11.3772 2.21367 10.7545 1.61943 10.0094 1.22011ZM6.31722 13.4293C6.6357 13.2446 7.04365 13.353 7.2284 13.6715C7.287 13.7725 7.37112 13.8564 7.47232 13.9147C7.57353 13.9729 7.68827 14.0036 7.80506 14.0036C7.92186 14.0036 8.0366 13.9729 8.13781 13.9147C8.23901 13.8564 8.32313 13.7725 8.38173 13.6715C8.56648 13.353 8.97443 13.2446 9.29291 13.4293C9.6114 13.6141 9.71981 14.022 9.53506 14.3405C9.35925 14.6436 9.10691 14.8952 8.80329 15.07C8.49967 15.2449 8.15544 15.337 7.80506 15.337C7.45469 15.337 7.11046 15.2449 6.80684 15.07C6.50322 14.8952 6.25088 14.6436 6.07507 14.3405C5.89032 14.022 5.99873 13.6141 6.31722 13.4293ZM0.862254 1.06312C1.1226 0.802771 1.54471 0.802771 1.80506 1.06312L14.7479 13.3393C15.0082 13.5996 15.0082 14.0218 14.7479 14.2821C14.4875 14.5425 14.0654 14.5425 13.8051 14.2821L11.364 11.9668C11.2935 11.9921 11.2176 12.0059 11.1384 12.0059H1.80504C1.51127 12.0059 1.25212 11.8136 1.16698 11.5325C1.08276 11.2543 1.18851 10.954 1.4275 10.7898L1.42941 10.7884C1.43454 10.7846 1.44644 10.7755 1.46419 10.7607C1.49967 10.7311 1.55859 10.6787 1.63358 10.5995C1.7832 10.4416 1.99858 10.1756 2.21978 9.77003C2.66029 8.96243 3.13828 7.57467 3.13838 5.33998L3.57635 4.58023L0.862254 2.00593C0.601905 1.74558 0.601905 1.32347 0.862254 1.06312ZM4.47147 5.42926L9.99954 10.6726H3.23793C3.28865 10.5895 3.33958 10.5015 3.39031 10.4085C3.94283 9.39555 4.45877 7.81067 4.47147 5.42926Z" fill="#959595"/>
</svg>
